<mxfile host="Electron" agent="Mozilla/5.0 (Windows NT 10.0; Win64; x64) AppleWebKit/537.36 (KHTML, like Gecko) draw.io/26.0.9 Chrome/128.0.6613.186 Electron/32.2.5 Safari/537.36" version="26.0.9">
  <diagram name="Page-1" id="UkIfleoKLhb_ippRS60x">
    <mxGraphModel dx="600" dy="388" grid="1" gridSize="10" guides="1" tooltips="1" connect="1" arrows="1" fold="1" page="1" pageScale="1" pageWidth="570" pageHeight="940" math="0" shadow="0">
      <root>
        <mxCell id="0" />
        <mxCell id="1" parent="0" />
        <mxCell id="JLvZ5wwWlp_m7Jqt_O5E-1" value="" style="rounded=1;whiteSpace=wrap;html=1;fillColor=#dae8fc;strokeWidth=2;strokeColor=#6c8ebf;" vertex="1" parent="1">
          <mxGeometry x="60" y="230" width="160" height="60" as="geometry" />
        </mxCell>
        <mxCell id="JLvZ5wwWlp_m7Jqt_O5E-2" value="" style="shape=flexArrow;endArrow=classic;html=1;rounded=0;" edge="1" parent="1">
          <mxGeometry width="50" height="50" relative="1" as="geometry">
            <mxPoint x="240" y="260" as="sourcePoint" />
            <mxPoint x="370" y="260" as="targetPoint" />
          </mxGeometry>
        </mxCell>
        <mxCell id="JLvZ5wwWlp_m7Jqt_O5E-3" value="&lt;font style=&quot;font-size: 14px;&quot;&gt;X=A+B_10;&lt;/font&gt;" style="text;html=1;align=center;verticalAlign=middle;whiteSpace=wrap;rounded=0;" vertex="1" parent="1">
          <mxGeometry x="85" y="245" width="110" height="30" as="geometry" />
        </mxCell>
        <mxCell id="JLvZ5wwWlp_m7Jqt_O5E-4" value="" style="rounded=1;whiteSpace=wrap;html=1;fillColor=#dae8fc;strokeWidth=2;strokeColor=#6c8ebf;connectable=0;allowArrows=0;" vertex="1" parent="1">
          <mxGeometry x="390" y="230" width="160" height="60" as="geometry" />
        </mxCell>
        <mxCell id="JLvZ5wwWlp_m7Jqt_O5E-5" value="&lt;font style=&quot;font-size: 14px;&quot;&gt;X = A + B_10 ;&lt;/font&gt;" style="text;html=1;align=center;verticalAlign=middle;whiteSpace=wrap;rounded=0;connectable=0;allowArrows=0;" vertex="1" parent="1">
          <mxGeometry x="415" y="245" width="110" height="30" as="geometry" />
        </mxCell>
        <mxCell id="JLvZ5wwWlp_m7Jqt_O5E-6" value="" style="endArrow=none;html=1;rounded=0;fillColor=#f8cecc;strokeColor=#b85450;" edge="1" parent="1">
          <mxGeometry width="50" height="50" relative="1" as="geometry">
            <mxPoint x="437" y="295" as="sourcePoint" />
            <mxPoint x="437" y="225" as="targetPoint" />
          </mxGeometry>
        </mxCell>
        <mxCell id="JLvZ5wwWlp_m7Jqt_O5E-7" value="" style="endArrow=none;html=1;rounded=0;fillColor=#f8cecc;strokeColor=#b85450;" edge="1" parent="1">
          <mxGeometry width="50" height="50" relative="1" as="geometry">
            <mxPoint x="448" y="295" as="sourcePoint" />
            <mxPoint x="448" y="225" as="targetPoint" />
          </mxGeometry>
        </mxCell>
        <mxCell id="JLvZ5wwWlp_m7Jqt_O5E-8" value="" style="endArrow=none;html=1;rounded=0;fillColor=#f8cecc;strokeColor=#b85450;" edge="1" parent="1">
          <mxGeometry width="50" height="50" relative="1" as="geometry">
            <mxPoint x="461" y="295" as="sourcePoint" />
            <mxPoint x="461" y="225" as="targetPoint" />
          </mxGeometry>
        </mxCell>
        <mxCell id="JLvZ5wwWlp_m7Jqt_O5E-9" value="" style="endArrow=none;html=1;rounded=0;fillColor=#f8cecc;strokeColor=#b85450;" edge="1" parent="1">
          <mxGeometry width="50" height="50" relative="1" as="geometry">
            <mxPoint x="472" y="295" as="sourcePoint" />
            <mxPoint x="472" y="225" as="targetPoint" />
          </mxGeometry>
        </mxCell>
        <mxCell id="JLvZ5wwWlp_m7Jqt_O5E-10" value="" style="endArrow=none;html=1;rounded=0;fillColor=#f8cecc;strokeColor=#b85450;" edge="1" parent="1">
          <mxGeometry width="50" height="50" relative="1" as="geometry">
            <mxPoint x="508" y="295" as="sourcePoint" />
            <mxPoint x="508" y="225" as="targetPoint" />
          </mxGeometry>
        </mxCell>
        <mxCell id="JLvZ5wwWlp_m7Jqt_O5E-11" value="" style="endArrow=none;html=1;rounded=0;fillColor=#f8cecc;strokeColor=#b85450;" edge="1" parent="1">
          <mxGeometry width="50" height="50" relative="1" as="geometry">
            <mxPoint x="520" y="295" as="sourcePoint" />
            <mxPoint x="520" y="225" as="targetPoint" />
          </mxGeometry>
        </mxCell>
        <mxCell id="JLvZ5wwWlp_m7Jqt_O5E-12" value="" style="sketch=0;html=1;aspect=fixed;strokeColor=none;shadow=0;align=center;fillColor=#2D9C5E;verticalAlign=top;labelPosition=center;verticalLabelPosition=bottom;shape=mxgraph.gcp2.check" vertex="1" parent="1">
          <mxGeometry x="425" y="213" width="12.5" height="10" as="geometry" />
        </mxCell>
        <mxCell id="JLvZ5wwWlp_m7Jqt_O5E-13" value="" style="endArrow=none;html=1;rounded=0;fillColor=#f8cecc;strokeColor=#b85450;" edge="1" parent="1">
          <mxGeometry width="50" height="50" relative="1" as="geometry">
            <mxPoint x="424" y="295" as="sourcePoint" />
            <mxPoint x="424" y="225" as="targetPoint" />
          </mxGeometry>
        </mxCell>
        <mxCell id="JLvZ5wwWlp_m7Jqt_O5E-14" value="" style="sketch=0;html=1;aspect=fixed;strokeColor=none;shadow=0;align=center;fillColor=#2D9C5E;verticalAlign=top;labelPosition=center;verticalLabelPosition=bottom;shape=mxgraph.gcp2.check" vertex="1" parent="1">
          <mxGeometry x="508" y="213" width="12.5" height="10" as="geometry" />
        </mxCell>
        <mxCell id="JLvZ5wwWlp_m7Jqt_O5E-15" value="" style="sketch=0;html=1;aspect=fixed;strokeColor=none;shadow=0;align=center;fillColor=#2D9C5E;verticalAlign=top;labelPosition=center;verticalLabelPosition=bottom;shape=mxgraph.gcp2.check" vertex="1" parent="1">
          <mxGeometry x="484" y="213" width="12.5" height="10" as="geometry" />
        </mxCell>
        <mxCell id="JLvZ5wwWlp_m7Jqt_O5E-16" value="" style="sketch=0;html=1;aspect=fixed;strokeColor=none;shadow=0;align=center;fillColor=#2D9C5E;verticalAlign=top;labelPosition=center;verticalLabelPosition=bottom;shape=mxgraph.gcp2.check" vertex="1" parent="1">
          <mxGeometry x="460.75" y="213" width="12.5" height="10" as="geometry" />
        </mxCell>
        <mxCell id="JLvZ5wwWlp_m7Jqt_O5E-17" value="" style="sketch=0;html=1;aspect=fixed;strokeColor=none;shadow=0;align=center;fillColor=#2D9C5E;verticalAlign=top;labelPosition=center;verticalLabelPosition=bottom;shape=mxgraph.gcp2.check" vertex="1" parent="1">
          <mxGeometry x="437" y="213" width="12.5" height="10" as="geometry" />
        </mxCell>
        <mxCell id="JLvZ5wwWlp_m7Jqt_O5E-18" value="" style="sketch=0;html=1;aspect=fixed;strokeColor=none;shadow=0;align=center;fillColor=#2D9C5E;verticalAlign=top;labelPosition=center;verticalLabelPosition=bottom;shape=mxgraph.gcp2.check" vertex="1" parent="1">
          <mxGeometry x="449.75" y="213" width="12.5" height="10" as="geometry" />
        </mxCell>
        <mxCell id="JLvZ5wwWlp_m7Jqt_O5E-19" value="Lexical Analysis" style="text;html=1;align=center;verticalAlign=middle;whiteSpace=wrap;rounded=0;" vertex="1" parent="1">
          <mxGeometry x="249" y="280" width="100" height="30" as="geometry" />
        </mxCell>
        <mxCell id="JLvZ5wwWlp_m7Jqt_O5E-20" value="&amp;nbsp; Tokens =&lt;font style=&quot;font-size: 17px;&quot;&gt; [&lt;/font&gt;&lt;font size=&quot;1&quot; style=&quot;&quot;&gt;X,=,A,+,B_10,;&lt;/font&gt;&lt;font style=&quot;font-size: 17px;&quot;&gt;]&lt;/font&gt;" style="text;html=1;align=left;verticalAlign=middle;whiteSpace=wrap;rounded=0;" vertex="1" parent="1">
          <mxGeometry x="397" y="320" width="140" height="30" as="geometry" />
        </mxCell>
      </root>
    </mxGraphModel>
  </diagram>
</mxfile>
